<svg width="477" height="492" viewBox="0 0 477 492" fill="none" xmlns="http://www.w3.org/2000/svg">
<rect x="73" y="139" width="5" height="5" rx="2.5" fill="white"/>
<rect x="120" width="5" height="5" rx="2.5" fill="white"/>
<rect x="42" y="357" width="5" height="5" rx="2.5" fill="white"/>
<rect x="220" y="447" width="5" height="5" rx="2.5" fill="white"/>
<rect y="302" width="5" height="5" rx="2.5" fill="white"/>
<rect x="115" y="452" width="5" height="5" rx="2.5" fill="white"/>
<rect x="56" y="260" width="5" height="5" rx="2.5" fill="white"/>
<rect x="472" y="297" width="5" height="5" rx="2.5" fill="white"/>
<rect x="316" y="299" width="5" height="5" rx="2.5" fill="white"/>
<rect x="335" y="487" width="5" height="5" rx="2.5" fill="white"/>
<rect x="321" y="374" width="5" height="5" rx="2.5" fill="white"/>
<rect x="202" y="299" width="5" height="5" rx="2.5" fill="white"/>
<rect x="389" y="70" width="5" height="5" rx="2.5" fill="white"/>
<rect x="165" y="344" width="5" height="5" rx="2.5" fill="white"/>
<rect x="255" y="221" width="5" height="5" rx="2.5" fill="white"/>
<rect x="177" y="166" width="5" height="5" rx="2.5" fill="white"/>
</svg>
