<svg width="70" height="70" viewBox="0 0 282 282" fill="none" xmlns="http://www.w3.org/2000/svg">
<circle cx="141" cy="141" r="141" fill="#51B1E7"/>
<rect x="50" y="126" width="48" height="35" rx="15" fill="#97D1A0"/>
<rect x="61" y="117" width="75" height="24" rx="12" fill="white"/>
<rect x="24" y="129" width="75" height="23" rx="11.5" fill="white"/>
<rect x="230" y="153" width="52" height="24" rx="12" fill="white"/>
<rect x="161.415" y="228.263" width="41.9301" height="27.0803" rx="13.5402" transform="rotate(-179.441 161.415 228.263)" fill="#97D1A0"/>
<rect x="148" y="82" width="93" height="44" rx="22" fill="#97D1A0"/>
<rect x="113" y="27" width="13" height="14" rx="6.5" fill="white"/>
<rect x="141" y="140" width="73" height="23" rx="11.5" fill="#97D1A0"/>
<rect x="173" y="103" width="22" height="44" fill="#97D1A0"/>
<rect x="177" y="85" width="53" height="18" rx="9" fill="white"/>
<rect x="194" y="70" width="75" height="24" rx="12" fill="white"/>
<rect x="107.46" y="45.2317" width="11.0714" height="43.2233" rx="5.53568" transform="rotate(88.5033 107.46 45.2317)" fill="#97D1A0"/>
<rect x="61" y="156" width="50" height="21" rx="10.5" fill="#97D1A0"/>
<rect x="138.996" y="241.904" width="81" height="31.6837" rx="15" transform="rotate(179.863 138.996 241.904)" fill="#97D1A0"/>
<rect x="186" y="165" width="75" height="24" rx="12" fill="white"/>
<rect x="98" y="34" width="21" height="17" rx="8.5" fill="white"/>
<rect x="101" y="226" width="102" height="28" rx="14" fill="white"/>
</svg>
